<svg preserveAspectRatio="xMidYMid meet" data-bbox="13.538 9.013 179.163 84.596" xmlns="http://www.w3.org/2000/svg" viewBox="13.538 9.013 179.163 84.596" role="img" aria-labelledby="svgcid--xh6qk179ey6" fill="rgb(16, 230, 152)"><title id="svgcid--xh6qk179ey6">Top Page</title>
    <g>
        <path d="M189.808 62.082c-.469 0-.944-.113-1.385-.356L103.12 15.2 17.817 61.726a2.883 2.883 0 0 1-3.925-1.153 2.887 2.887 0 0 1 1.156-3.922l86.688-47.286a2.9 2.9 0 0 1 2.769 0l86.688 47.286a2.886 2.886 0 0 1 1.153 3.922 2.874 2.874 0 0 1-2.538 1.509z"></path>
        <path d="M189.808 93.608c-.469 0-.944-.113-1.385-.356L103.12 46.723 17.817 93.252a2.883 2.883 0 0 1-3.925-1.153 2.887 2.887 0 0 1 1.156-3.922l86.688-47.289a2.9 2.9 0 0 1 2.769 0l86.688 47.289a2.886 2.886 0 0 1 1.153 3.922 2.874 2.874 0 0 1-2.538 1.509z"></path>
    </g>
</svg>