<svg preserveAspectRatio="xMidYMid meet" data-bbox="4.402 25.5 191.197 149.1" xmlns="http://www.w3.org/2000/svg" viewBox="4.402 25.5 191.197 149.1" role="presentation" aria-hidden="true" fill="rgb(16, 230, 152)">
    <g>
        <path d="M47.5 174.3h.1c.3.2.7.3 1.1.3.2 0 .4 0 .6-.1l50.7-13.8 50.7 13.8c.2.1.4.1.6.1.4 0 .7-.1 1.1-.3h.1l42-25.6c.9-.5 1.3-1.6 1-2.6l-23.2-81.6c-.2-.7-.7-1.2-1.4-1.5-.7-.3-1.4-.2-2 .1l-23.1 13c-1.1.6-1.5 2.1-.9 3.2s2 1.5 3.2.9l20.6-11.5 22 77.1-37.4 22.8-8.9-71c-.2-1.3-1.4-2.2-2.6-2-1.3.2-2.2 1.3-2 2.6l8.7 71.2-46.5-12.9v-12.7c0-1.3-.7-2.3-2-2.3s-2 1-2 2.3v12.7l-46.4 12.6L60.4 98c.2-1.3-.8-2.4-2.1-2.6-1.3-.1-2.5.7-2.6 2l-8.9 71-37.3-22.8 21.9-77.1L52 80c1.1.6 2.5.2 3.2-.9.6-1.1.2-2.5-.9-3.2L31.1 63c-.6-.3-1.4-.4-2-.1-.7.3-1.2.8-1.4 1.5L4.5 146c-.3 1 .1 2.1 1 2.6l42 25.7z"></path>
        <path d="M98.4 134.4c.4.4 1 .6 1.6.6.6 0 1.1-.2 1.6-.6 1.6-1.4 38.1-34.9 38.1-69.3 0-22.2-17.4-39.6-39.6-39.6S60.4 42.8 60.4 65c0 33.9 36.5 67.9 38 69.4zM100 30c19.9 0 35 15 35 35 0 28.4-27.9 57.5-35 64.4C93 122.5 65 93 65 65c0-19.9 15.1-35 35-35z"></path>
        <path d="M121 65c0-11.6-9.4-21-21-21s-21 9.4-21 21 9.4 21 21 21 21-9.4 21-21zm-21 16.3c-9 0-16.3-7.3-16.3-16.3S91 48.7 100 48.7 116.3 56 116.3 65 109 81.3 100 81.3z"></path>
    </g>
</svg>